<svg width="15" height="14" viewBox="0 0 15 14" fill="none" xmlns="http://www.w3.org/2000/svg">
<path d="M11.2924 9.44985C11.2924 9.29639 11.231 9.14293 11.1205 9.03244L9.31585 7.22775L11.1205 5.42306C11.231 5.31257 11.2924 5.15911 11.2924 5.00565C11.2924 4.85219 11.231 4.69873 11.1205 4.58824L10.2857 3.75342C10.1752 3.64293 10.0218 3.58154 9.8683 3.58154C9.71484 3.58154 9.56138 3.64293 9.45089 3.75342L7.64621 5.55811L5.84152 3.75342C5.73103 3.64293 5.57757 3.58154 5.42411 3.58154C5.27065 3.58154 5.11719 3.64293 5.0067 3.75342L4.17188 4.58824C4.06138 4.69873 4 4.85219 4 5.00565C4 5.15911 4.06138 5.31257 4.17188 5.42306L5.97656 7.22775L4.17188 9.03244C4.06138 9.14293 4 9.29639 4 9.44985C4 9.60331 4.06138 9.75677 4.17188 9.86726L5.0067 10.7021C5.11719 10.8126 5.27065 10.874 5.42411 10.874C5.57757 10.874 5.73103 10.8126 5.84152 10.7021L7.64621 8.89739L9.45089 10.7021C9.56138 10.8126 9.71484 10.874 9.8683 10.874C10.0218 10.874 10.1752 10.8126 10.2857 10.7021L11.1205 9.86726C11.231 9.75677 11.2924 9.60331 11.2924 9.44985Z" fill="white"/>
</svg>
