<svg width="15" height="15" viewBox="0 0 15 15" fill="none" xmlns="http://www.w3.org/2000/svg">
<path d="M7.6423 9.9797H7.29855V9.39042H6.70926V9.04667L7.42132 8.33461L8.35435 9.26765L7.6423 9.9797ZM10.3432 5.56006C10.3984 5.6153 10.3923 5.70738 10.3371 5.76263L8.18862 7.91106C8.13337 7.96631 8.04129 7.97245 7.98605 7.9172C7.9308 7.86196 7.93694 7.76988 7.99219 7.71463L10.1406 5.5662C10.1959 5.51095 10.2879 5.50481 10.3432 5.56006ZM10.8343 9.20626C10.8343 9.12647 10.7852 9.05894 10.7115 9.02825C10.6378 8.99756 10.558 9.00984 10.4967 9.07122L10.1038 9.46408C10.067 9.50091 10.0485 9.55001 10.0485 9.59912V10.3726C10.0485 10.9127 9.60659 11.3547 9.06641 11.3547H3.95926C3.41908 11.3547 2.97712 10.9127 2.97712 10.3726V5.26542C2.97712 4.72524 3.41908 4.28327 3.95926 4.28327H9.06641C9.15848 4.28327 9.25056 4.29555 9.34263 4.3201C9.41016 4.34466 9.48382 4.32624 9.53906 4.271L9.83984 3.97021C9.88895 3.92111 9.90737 3.85972 9.89509 3.7922C9.88281 3.73082 9.83984 3.67557 9.7846 3.65102C9.55748 3.54667 9.31194 3.49756 9.06641 3.49756H3.95926C2.98326 3.49756 2.19141 4.28941 2.19141 5.26542V10.3726C2.19141 11.3486 2.98326 12.1404 3.95926 12.1404H9.06641C10.0424 12.1404 10.8343 11.3486 10.8343 10.3726V9.20626ZM10.245 4.67613L6.11998 8.80113V10.569H7.88784L12.0128 6.44399L10.245 4.67613ZM12.9704 5.4864C13.1975 5.25928 13.1975 4.8787 12.9704 4.65158L12.0374 3.71854C11.8103 3.49142 11.4297 3.49142 11.2026 3.71854L10.6378 4.28327L12.4057 6.05113L12.9704 5.4864Z" fill="white"/>
</svg>
