<svg width="15" height="17" viewBox="0 0 15 17" fill="none" xmlns="http://www.w3.org/2000/svg">
<path d="M4.45227 7.56626C3.64509 7.56626 2.87097 7.24208 2.30021 6.66505C1.72945 6.08801 1.4088 5.30538 1.4088 4.48933V2.02779C1.4088 1.86458 1.47293 1.70806 1.58708 1.59265C1.70123 1.47724 1.85606 1.41241 2.01749 1.41241H2.62619C2.78762 1.41241 2.94245 1.34757 3.0566 1.23217C3.17075 1.11676 3.23488 0.960235 3.23488 0.797025C3.23488 0.633815 3.17075 0.47729 3.0566 0.361883C2.94245 0.246476 2.78762 0.181641 2.62619 0.181641H2.01749C1.53318 0.181641 1.06871 0.376146 0.726255 0.722367C0.383797 1.06859 0.191406 1.53816 0.191406 2.02779V4.48933C0.192189 5.18456 0.359876 5.8692 0.680067 6.48446C1.00026 7.09972 1.46338 7.62722 2.02967 8.02164C2.57374 8.50658 3.01497 9.09795 3.32673 9.76005C3.63849 10.4222 3.81431 11.1413 3.84358 11.8739C3.84358 13.0164 4.29249 14.1121 5.09156 14.9199C5.89063 15.7278 6.97439 16.1816 8.10445 16.1816C9.2345 16.1816 10.3183 15.7278 11.1173 14.9199C11.9164 14.1121 12.3653 13.0164 12.3653 11.8739V11.1724C12.9391 11.0226 13.4392 10.6664 13.7718 10.1706C14.1044 9.6747 14.2467 9.07322 14.172 8.47887C14.0973 7.88452 13.8108 7.33811 13.3661 6.94206C12.9215 6.546 12.3492 6.3275 11.7566 6.3275C11.164 6.3275 10.5917 6.546 10.1471 6.94206C9.70243 7.33811 9.41591 7.88452 9.34124 8.47887C9.26657 9.07322 9.40887 9.6747 9.74147 10.1706C10.0741 10.6664 10.5741 11.0226 11.1479 11.1724V11.8739C11.1479 12.69 10.8273 13.4726 10.2565 14.0497C9.68575 14.6267 8.91163 14.9509 8.10445 14.9509C7.29727 14.9509 6.52315 14.6267 5.95238 14.0497C5.38162 13.4726 5.06097 12.69 5.06097 11.8739C5.09178 11.1403 5.2695 10.4207 5.58338 9.75853C5.89726 9.09638 6.34076 8.5055 6.88706 8.02164C7.45109 7.62585 7.91185 7.09775 8.22987 6.48258C8.5479 5.8674 8.71372 5.18346 8.71314 4.48933V2.02779C8.71314 1.53816 8.52075 1.06859 8.17829 0.722367C7.83584 0.376146 7.37136 0.181641 6.88706 0.181641H6.27836C6.11692 0.181641 5.9621 0.246476 5.84795 0.361883C5.7338 0.47729 5.66966 0.633815 5.66966 0.797025C5.66966 0.960235 5.7338 1.11676 5.84795 1.23217C5.9621 1.34757 6.11692 1.41241 6.27836 1.41241H6.88706C7.04849 1.41241 7.20332 1.47724 7.31747 1.59265C7.43162 1.70806 7.49575 1.86458 7.49575 2.02779V4.48933C7.49575 4.8934 7.41703 5.29351 7.26408 5.66682C7.11113 6.04013 6.88695 6.37933 6.60434 6.66505C6.32172 6.95077 5.98621 7.17741 5.61696 7.33204C5.24771 7.48667 4.85195 7.56626 4.45227 7.56626ZM11.7566 10.0278C11.4337 10.0278 11.1241 9.89812 10.8958 9.66731C10.6675 9.4365 10.5392 9.12345 10.5392 8.79703C10.5392 8.4706 10.6675 8.15755 10.8958 7.92674C11.1241 7.69593 11.4337 7.56626 11.7566 7.56626C12.0795 7.56626 12.3891 7.69593 12.6174 7.92674C12.8457 8.15755 12.974 8.4706 12.974 8.79703C12.974 9.12345 12.8457 9.4365 12.6174 9.66731C12.3891 9.89812 12.0795 10.0278 11.7566 10.0278Z" fill="#EEEEEE"/>
</svg>
