<svg width="19" height="19" viewBox="0 0 19 19" fill="none" xmlns="http://www.w3.org/2000/svg">
<path d="M6.61328 3.41602C7.10001 3.41602 7.57581 3.56035 7.9805 3.83076C8.3852 4.10117 8.70063 4.48552 8.88689 4.93519C9.07315 5.38487 9.12189 5.87968 9.02693 6.35706C8.93198 6.83443 8.6976 7.27293 8.35343 7.6171C8.00926 7.96127 7.57076 8.19565 7.09339 8.2906C6.61601 8.38556 6.1212 8.33683 5.67152 8.15056C5.22184 7.9643 4.8375 7.64888 4.56709 7.24418C4.29668 6.83948 4.15234 6.36368 4.15234 5.87695C4.15234 5.22427 4.41162 4.59832 4.87314 4.13681C5.33465 3.67529 5.9606 3.41602 6.61328 3.41602ZM6.61328 2.43164C5.93186 2.43164 5.26575 2.6337 4.69917 3.01228C4.13259 3.39086 3.69099 3.92894 3.43023 4.55849C3.16946 5.18804 3.10123 5.88077 3.23417 6.5491C3.36711 7.21743 3.69524 7.83132 4.17708 8.31316C4.65891 8.79499 5.27281 9.12313 5.94113 9.25606C6.60946 9.389 7.3022 9.32077 7.93175 9.06001C8.56129 8.79924 9.09938 8.35764 9.47795 7.79107C9.85653 7.22449 10.0586 6.55837 10.0586 5.87695C10.0586 4.9632 9.69561 4.08687 9.04948 3.44075C8.40336 2.79463 7.52703 2.43164 6.61328 2.43164ZM11.5352 16.2129H10.5508V13.752C10.5508 13.0993 10.2915 12.4733 9.82999 12.0118C9.36847 11.5503 8.74253 11.291 8.08984 11.291H5.13672C4.48404 11.291 3.85809 11.5503 3.39657 12.0118C2.93506 12.4733 2.67578 13.0993 2.67578 13.752V16.2129H1.69141V13.752C1.69141 12.8382 2.05439 11.9619 2.70051 11.3157C3.34664 10.6696 4.22297 10.3066 5.13672 10.3066H8.08984C9.0036 10.3066 9.87993 10.6696 10.526 11.3157C11.1722 11.9619 11.5352 12.8382 11.5352 13.752V16.2129ZM11.5352 3.41602H16.457V4.40039H11.5352V3.41602ZM11.5352 5.87695H16.457V6.86133H11.5352V5.87695ZM11.5352 8.33789H14.9805V9.32227H11.5352V8.33789Z" fill="white"/>
</svg>
