<svg width="15" height="21" viewBox="0 0 15 21" fill="none" xmlns="http://www.w3.org/2000/svg">
<path d="M14.9985 15.2291V20.0832C15.0066 20.2025 14.9892 20.3222 14.9474 20.4346C14.9056 20.547 14.8404 20.6496 14.7558 20.7359C14.6713 20.8222 14.5693 20.8902 14.4564 20.9357C14.3435 20.9812 14.2222 21.0031 14.1002 21C13.9644 20.9938 13.8339 20.9471 13.726 20.8661L11.7723 19.4651C10.8236 18.7867 9.87497 18.1117 8.92798 17.4313C8.17955 16.8939 7.43096 16.3531 6.68254 15.8157C5.49247 14.96 4.30241 14.1103 3.11235 13.2668C2.04412 12.5146 1.20355 11.4932 0.679796 10.3108C0.324121 9.58444 0.120535 8.79563 0.0810541 7.99091C0.0810541 7.75253 -0.0144349 7.51779 0.00250151 7.27199C0.0431572 6.37603 0.224265 5.49153 0.539466 4.64956C0.944827 3.6292 1.58056 2.71197 2.39902 1.9666C3.21749 1.22123 4.19746 0.667034 5.26553 0.345548C6.28032 0.0251926 7.35432 -0.0738349 8.41227 0.055403C9.47023 0.184641 10.4866 0.539018 11.39 1.09371C12.6994 1.88917 13.7272 3.06021 14.3341 4.44786C14.5656 4.97154 14.7315 5.52079 14.8281 6.0836C15.054 7.40208 14.9067 8.72974 14.9591 10.0512C15.0302 11.8621 14.9704 13.6739 14.9985 15.2291ZM13.0243 7.31594C13.022 6.24463 12.6966 5.1979 12.089 4.30732C11.4814 3.41674 10.6187 2.72205 9.60939 2.31058C8.60007 1.89911 7.48915 1.78922 6.41628 1.99472C5.34341 2.20023 4.35646 2.71195 3.57951 3.46558C2.80256 4.2192 2.27027 5.18109 2.04955 6.23034C1.82883 7.27958 1.92953 8.36935 2.339 9.36267C2.74847 10.356 3.44843 11.2085 4.35089 11.8131C5.25335 12.4177 6.31804 12.7473 7.41113 12.7606C10.6197 12.7936 12.9793 10.2868 13.0243 7.31594Z" fill="#718EFA"/>
<path d="M10.7278 5.60115C10.6272 5.35388 10.4742 5.13035 10.2789 4.94534C10.0836 4.76033 9.8504 4.61805 9.59481 4.5279C9.33922 4.43776 9.06702 4.40181 8.79619 4.42243C8.52537 4.44304 8.2621 4.51976 8.02378 4.6475C7.7599 4.78976 7.75425 4.83086 7.96571 5.03999C8.27277 5.3507 8.59767 5.64398 8.93883 5.9184C9.04367 6.00092 9.11094 6.10177 8.98561 6.23455C8.86028 6.36733 8.7835 6.27676 8.69366 6.19234C8.23331 5.77614 7.79538 5.3525 7.32955 4.94531C6.96945 4.63483 6.4983 4.47717 6.01964 4.50697C5.73002 4.51425 5.44617 4.58787 5.19078 4.72193C4.9354 4.85598 4.71558 5.04676 4.54892 5.279C4.33901 5.54253 4.20662 5.85727 4.16605 6.18921C4.12548 6.52114 4.17828 6.85763 4.31874 7.16228C4.47645 7.48758 4.70363 7.77588 4.98491 8.00766C5.79076 8.74132 6.59537 9.47468 7.39875 10.2077C7.6407 10.429 7.66634 10.4352 7.89652 10.1919C8.72613 9.3166 9.55445 8.44067 10.3815 7.5641C10.6951 7.22441 10.8685 6.78255 10.868 6.32449C10.8847 6.07562 10.8365 5.82667 10.7278 5.60115ZM6.54919 6.62262H6.13949V7.01875C6.13949 7.06738 6.11977 7.11402 6.08468 7.14841C6.04959 7.1828 6.002 7.20212 5.95238 7.20212C5.90275 7.20212 5.85516 7.1828 5.82007 7.14841C5.78498 7.11402 5.76527 7.06738 5.76527 7.01875V6.62262H5.36106C5.31143 6.62262 5.26384 6.6033 5.22875 6.56891C5.19366 6.53453 5.17395 6.48789 5.17395 6.43925C5.17395 6.39062 5.19366 6.34398 5.22875 6.3096C5.26384 6.27521 5.31143 6.25589 5.36106 6.25589H5.76527V5.8615C5.76527 5.81287 5.78498 5.76623 5.82007 5.73184C5.85516 5.69745 5.90275 5.67813 5.95238 5.67813C6.002 5.67813 6.04959 5.69745 6.08468 5.73184C6.11977 5.76623 6.13949 5.81287 6.13949 5.8615V6.25763H6.54919C6.59881 6.25763 6.6464 6.27695 6.68149 6.31133C6.71658 6.34572 6.73629 6.39236 6.73629 6.44099C6.73629 6.48962 6.71658 6.53626 6.68149 6.57065C6.6464 6.60504 6.59881 6.62436 6.54919 6.62436V6.62262Z" fill="#718EFA"/>
</svg>
