<svg width="20" height="24" viewBox="0 0 20 24" fill="none" xmlns="http://www.w3.org/2000/svg">
<g clip-path="url(#clip0_501:4954)">
<path d="M3.61154 20.1815H1.37665C0.450627 20.1815 0.000976562 19.7243 0.000976562 18.7774C0.000976562 16.5395 0.000976562 14.3021 0.000976562 12.0653C0.000976562 11.1338 0.449055 10.6781 1.35857 10.6773H3.61076V10.2782C3.61076 7.72844 3.61076 5.17867 3.61076 2.62891C3.61076 1.57136 4.16103 0.777185 5.07684 0.508152C5.30341 0.443956 5.53751 0.41215 5.77254 0.413628C8.41069 0.407164 11.0496 0.413627 13.6878 0.405548C13.7995 0.401931 13.9107 0.423077 14.0138 0.467547C14.1169 0.512017 14.2095 0.57877 14.2852 0.663271C16.098 2.53439 17.9149 4.40173 19.7361 6.26531C19.8217 6.34692 19.8894 6.44634 19.9346 6.55696C19.9799 6.66757 20.0017 6.78683 19.9986 6.90679C19.9939 11.5555 19.9936 16.2026 19.9978 20.8481C19.9978 22.1577 19.1331 23.0625 17.862 23.065C13.8204 23.073 9.77903 23.073 5.73795 23.065C4.47154 23.065 3.62884 22.1722 3.61547 20.8699C3.60918 20.6501 3.61154 20.4312 3.61154 20.1815ZM13.4551 1.24416H5.82992C4.90468 1.24416 4.43459 1.72486 4.43459 2.67335C4.43459 5.21341 4.43459 7.75402 4.43459 10.2952V10.6482H4.81899C7.50694 10.6482 10.1951 10.6482 12.8836 10.6482C13.7971 10.6482 14.2451 11.1031 14.2451 12.033C14.2451 14.2709 14.2451 16.5088 14.2451 18.7467C14.2451 19.6871 13.8089 20.1315 12.8899 20.1315H4.43302C4.43302 20.3593 4.43302 20.5403 4.43302 20.7204C4.43302 21.6826 4.91097 22.1747 5.848 22.1747H17.7677C18.674 22.1747 19.1716 21.6641 19.1724 20.7374V7.11927C18.0271 7.11927 16.9195 7.11927 15.8126 7.11927C15.6068 7.12703 15.4008 7.11812 15.1963 7.09261C14.1571 6.91648 13.463 6.07545 13.4567 4.98397C13.4496 3.75433 13.4551 2.52469 13.4551 1.24416ZM7.11598 19.3179H12.8828C13.3545 19.3179 13.4543 19.2145 13.4543 18.7338C13.4543 16.5255 13.4543 14.3185 13.4543 12.113C13.4543 11.5886 13.3647 11.4957 12.8569 11.4957H1.40967C0.914427 11.4957 0.824812 11.5878 0.824812 12.0944C0.824812 14.3027 0.824812 16.5109 0.824812 18.7192C0.824812 19.2274 0.915999 19.3211 1.40731 19.3219L7.11598 19.3179ZM14.2593 1.9123C14.2593 3.00217 14.2302 4.06699 14.2703 5.12939C14.2955 5.81207 14.8386 6.26693 15.5194 6.27097C16.4494 6.27581 17.3801 6.27097 18.3101 6.27097C18.3663 6.26785 18.4222 6.26083 18.4775 6.24996L14.2593 1.9123Z" fill="#987BEC"/>
<path d="M5.59534 17.1398V13.6214C6.21479 13.6569 6.82716 13.6319 7.41674 13.7401C8.26101 13.8952 8.76883 14.5965 8.75783 15.4367C8.74603 16.2568 8.20755 16.8998 7.37743 17.08C7.20423 17.1156 7.02815 17.1343 6.85153 17.1358C6.44197 17.1455 6.03162 17.1398 5.59534 17.1398ZM6.35864 14.3331V16.4547C6.59447 16.4547 6.80751 16.4603 7.02211 16.4547C7.28396 16.4545 7.53564 16.3505 7.72471 16.1643C7.91377 15.9782 8.02563 15.7242 8.03697 15.4553C8.04763 15.1866 7.96054 14.9235 7.79268 14.7172C7.62482 14.5109 7.38822 14.3763 7.12902 14.3396C6.87256 14.3224 6.61535 14.3203 6.35864 14.3331Z" fill="#987BEC"/>
<path d="M2.1041 13.6593C2.67402 13.6593 3.22272 13.6327 3.76827 13.6658C4.44196 13.7078 4.88454 14.2176 4.86882 14.8777C4.85624 15.5102 4.39716 15.9675 3.71796 16.0039C3.42632 16.0192 3.1331 16.0039 2.80294 16.0039V17.1212H2.10095L2.1041 13.6593ZM2.80137 15.3349C3.12682 15.3163 3.4389 15.3244 3.74469 15.2727C3.85392 15.2589 3.9537 15.2021 4.02304 15.1143C4.09238 15.0265 4.12588 14.9144 4.11652 14.8017C4.12069 14.6939 4.08404 14.5886 4.01426 14.508C3.94447 14.4274 3.847 14.3778 3.74233 14.3695C3.43733 14.3259 3.1276 14.3283 2.80451 14.3105L2.80137 15.3349Z" fill="#987BEC"/>
<path d="M9.59898 13.6674H12.1892V14.3138H10.3395V15.0999H11.9942V15.7656H10.3285V17.139H9.59662L9.59898 13.6674Z" fill="#987BEC"/>
</g>
<defs>
<clipPath id="clip0_501:4954">
<rect width="20" height="22.6627" fill="white" transform="translate(0 0.409637)"/>
</clipPath>
</defs>
</svg>
