<svg width="18" height="17" viewBox="0 0 18 17" fill="none" xmlns="http://www.w3.org/2000/svg">
<path d="M1.2168 8.59722C2.23934 6.67188 3.64496 5.11449 5.61966 4.16192C8.13558 2.94867 10.5997 3.14365 12.9578 4.61033C14.4583 5.54452 15.5794 6.84908 16.4453 8.38477C16.4839 8.45347 16.5154 8.5264 16.5501 8.59722V8.86844C15.548 10.7633 14.169 12.3039 12.241 13.2585C9.61697 14.5604 7.05732 14.3262 4.62108 12.7327C3.21006 11.8093 2.14679 10.5494 1.32133 9.0827C1.28269 9.01399 1.25154 8.94106 1.2168 8.86994V8.59722ZM8.93378 4.58923C8.06789 4.59647 7.28945 4.75136 6.54456 5.06266C4.79899 5.79193 3.54043 7.07208 2.55323 8.65508C2.54159 8.67949 2.53555 8.70621 2.53555 8.73328C2.53555 8.76035 2.54159 8.78707 2.55323 8.81148C3.4344 10.2342 4.5444 11.4251 6.05216 12.1827C7.86991 13.0958 9.71731 13.1238 11.5593 12.2565C13.1467 11.5089 14.3047 10.2842 15.2191 8.80696C15.2433 8.76779 15.2314 8.6825 15.2047 8.6382C14.612 7.66755 13.8868 6.81201 12.9949 6.10534C11.7867 5.14644 10.4281 4.59888 8.93378 4.58773V4.58923Z" fill="#F9F9F9"/>
<path d="M8.87809 11.7998C7.19086 11.798 5.81516 10.4196 5.81641 8.73209C5.81641 7.03708 7.19862 5.66247 8.89548 5.66651C10.5815 5.67087 11.9575 7.05636 11.9497 8.74173C11.9455 9.55462 11.62 10.3328 11.0443 10.9059C10.4687 11.479 9.68979 11.8004 8.87809 11.7998ZM8.88057 6.91078C8.39911 6.91208 7.93763 7.10369 7.59648 7.44394C7.25534 7.78419 7.06212 8.24557 7.05885 8.72773C7.05512 9.73248 7.87854 10.5562 8.88554 10.5556C9.36695 10.5541 9.82834 10.3624 10.1695 10.0222C10.5106 9.68201 10.7038 9.22073 10.7073 8.73862C10.7119 7.73387 9.88788 6.91016 8.88057 6.91078Z" fill="#F9F9F9"/>
</svg>
