<svg width="22" height="30" viewBox="0 0 22 30" fill="none" xmlns="http://www.w3.org/2000/svg">
<path d="M8.34009 14.1295V11.1653C8.34009 10.5241 8.34009 9.88429 8.34009 9.24304C8.34009 7.78886 8.75349 7.30756 10.1945 7.11239C10.359 6.7118 10.2484 6.48435 9.83209 6.27745C8.40705 5.57164 7.86556 3.96631 8.63121 2.56936C9.06871 1.81159 9.58023 1.0998 10.1581 0.444578C10.2682 0.307016 10.4072 0.195789 10.565 0.118916C10.7229 0.0420432 10.8957 0.00144137 11.071 3.76809e-05C11.2463 -0.00136601 11.4197 0.0364641 11.5788 0.110799C11.7378 0.185135 11.8785 0.294123 11.9908 0.429906C12.5931 1.11165 13.122 1.85586 13.5686 2.65007C14.2964 4.00593 13.7287 5.57604 12.3503 6.26718C11.9762 6.45501 11.8015 6.65164 11.9544 7.09919C12.0912 7.1212 12.2455 7.14468 12.4041 7.17256C13.2906 7.3193 13.8146 7.9268 13.8205 8.83951C13.8321 10.3773 13.8205 11.921 13.8205 13.4515V14.1295H14.4391C16.0039 14.1295 17.5686 14.1295 19.132 14.1295C20.9122 14.1383 21.9675 15.2212 21.998 17.0041C22.0155 18.0312 21.9282 19.01 21.2149 19.8347C21.116 19.9491 21.1261 20.178 21.1247 20.3526C21.1247 22.2925 21.1247 24.2324 21.1247 26.1723C21.1247 28.4556 19.6472 29.9875 17.3881 29.9875C13.1125 30.0042 8.83743 30.0042 4.56279 29.9875C2.29933 29.9787 0.824796 28.457 0.820429 26.1723C0.820429 24.1957 0.827706 22.2192 0.810239 20.2426C0.797062 19.9771 0.719062 19.7191 0.583164 19.4913C-0.135905 18.2425 -0.159193 16.9263 0.344447 15.6379C0.727272 14.6621 1.5657 14.1485 2.62538 14.1339C4.29933 14.1104 5.97328 14.1236 7.64722 14.1221L8.34009 14.1295ZM11.0257 15.7773C8.31729 15.7773 5.60792 15.7773 2.89758 15.7773C2.05915 15.7773 1.70835 16.1398 1.6967 16.9806C1.6967 17.1449 1.6967 17.3107 1.6967 17.4751C1.66905 18.1222 1.83208 18.6769 2.44489 18.9997C3.03441 19.3093 3.56134 19.1465 4.06934 18.7693C5.19744 17.9476 6.38085 17.8684 7.59482 18.5668C8.15378 18.8882 8.69235 18.897 9.2382 18.5507C10.4027 17.817 11.5672 17.7994 12.7317 18.5331C13.3357 18.9131 13.886 18.8412 14.5293 18.5624C15.1261 18.3042 15.8248 18.1046 16.4536 18.1604C17.0446 18.2132 17.6312 18.5859 18.1713 18.9029C19.1989 19.503 20.3052 18.941 20.3547 17.7466C20.3649 17.5279 20.3547 17.3063 20.3547 17.0877C20.3547 16.1046 20.0272 15.7759 19.0446 15.7759C16.3721 15.7749 13.6977 15.7754 11.0213 15.7773H11.0257ZM19.4682 20.787C19.0335 20.8439 18.5919 20.8119 18.1697 20.6929C17.7476 20.5739 17.3535 20.3703 17.0111 20.0944C16.5031 19.7085 15.9515 19.6057 15.3823 19.9476C14.1683 20.674 12.9762 20.6535 11.7855 19.8904C11.5512 19.7269 11.2726 19.6401 10.9877 19.6419C10.7027 19.6438 10.4253 19.7341 10.1931 19.9007C9.05916 20.627 7.91069 20.6608 6.74475 19.9785C6.18434 19.6498 5.63267 19.663 5.11156 20.0562C4.33718 20.6432 3.49001 20.9367 2.49147 20.7679V21.8054H19.4682V20.787ZM2.42742 26.7123C2.62393 27.0806 2.74474 27.4049 2.94707 27.6632C3.38375 28.2281 4.01403 28.3543 4.70253 28.3529C8.88303 28.344 13.064 28.344 17.2455 28.3529C17.4453 28.358 17.6452 28.3492 17.8437 28.3264C18.2447 28.2744 18.616 28.0861 18.8965 27.7927C19.177 27.4992 19.3499 27.1181 19.3867 26.7123H2.42742ZM2.474 24.9955H19.4566V23.5442H2.46818L2.474 24.9955ZM10.0111 8.82044V14.0957H12.145V8.82044H10.0111ZM11.081 1.74909C10.656 2.41382 10.3066 2.90246 10.0228 3.42778C9.79133 3.85626 9.966 4.37278 10.3678 4.68827C10.5699 4.8467 10.8182 4.93357 11.0742 4.93542C11.3302 4.93728 11.5797 4.85403 11.7841 4.69854C12.1902 4.39186 12.3779 3.868 12.1494 3.44392C11.8554 2.90686 11.4958 2.40795 11.0752 1.74909H11.081Z" fill="#987BEC"/>
</svg>
