<svg width="15" height="21" viewBox="0 0 15 21" fill="none" xmlns="http://www.w3.org/2000/svg">
<g clip-path="url(#clip0_2312_10565)">
<path d="M14.9985 15.2292V20.0833C15.0066 20.2027 14.9892 20.3223 14.9474 20.4347C14.9056 20.5471 14.8404 20.6497 14.7558 20.736C14.6713 20.8223 14.5693 20.8903 14.4564 20.9358C14.3435 20.9813 14.2222 21.0032 14.1002 21.0001C13.9644 20.9939 13.8339 20.9472 13.726 20.8662L11.7723 19.4652C10.8236 18.7868 9.87497 18.1118 8.92798 17.4315C8.17955 16.894 7.43096 16.3532 6.68254 15.8158C5.49247 14.9601 4.30241 14.1105 3.11235 13.2669C2.04412 12.5148 1.20355 11.4933 0.679796 10.3109C0.324121 9.58456 0.120535 8.79575 0.0810541 7.99103C0.0810541 7.75266 -0.0144349 7.51792 0.00250151 7.27211C0.0431572 6.37615 0.224265 5.49165 0.539466 4.64968C0.944827 3.62932 1.58056 2.7121 2.39902 1.96672C3.21749 1.22135 4.19746 0.667156 5.26553 0.34567C6.28032 0.0253147 7.35432 -0.0737129 8.41227 0.055525C9.47023 0.184763 10.4866 0.53914 11.39 1.09383C12.6994 1.8893 13.7272 3.06033 14.3341 4.44798C14.5656 4.97166 14.7315 5.52091 14.8281 6.08372C15.054 7.40221 14.9067 8.72986 14.9591 10.0514C15.0302 11.8622 14.9704 13.6741 14.9985 15.2292ZM13.0243 7.31606C13.022 6.24475 12.6966 5.19802 12.089 4.30744C11.4814 3.41686 10.6187 2.72217 9.60939 2.3107C8.60007 1.89923 7.48915 1.78934 6.41628 1.99485C5.34341 2.20035 4.35646 2.71208 3.57951 3.4657C2.80256 4.21933 2.27027 5.18121 2.04955 6.23046C1.82883 7.2797 1.92953 8.36948 2.339 9.36279C2.74847 10.3561 3.44843 11.2086 4.35089 11.8132C5.25335 12.4178 6.31804 12.7474 7.41113 12.7607C10.6197 12.7938 12.9793 10.2869 13.0243 7.31606Z" fill="#718EFA"/>
<path d="M10.7279 5.60137C10.6273 5.35409 10.4742 5.13056 10.2789 4.94555C10.0836 4.76054 9.85046 4.61826 9.59487 4.52812C9.33928 4.43798 9.06708 4.40203 8.79626 4.42264C8.52543 4.44326 8.26216 4.51997 8.02384 4.64771C7.75996 4.78998 7.75431 4.83108 7.96577 5.04021C8.27283 5.35091 8.59773 5.64419 8.93889 5.91862C9.04374 6.00113 9.111 6.10198 8.98567 6.23476C8.86034 6.36754 8.78356 6.27697 8.69372 6.19256C8.23337 5.77635 7.79544 5.35272 7.32961 4.94552C6.96951 4.63505 6.49836 4.47739 6.0197 4.50718C5.73008 4.51446 5.44623 4.58808 5.19084 4.72214C4.93546 4.8562 4.71564 5.04698 4.54898 5.27921C4.33907 5.54274 4.20668 5.85749 4.16611 6.18942C4.12554 6.52136 4.17834 6.85784 4.3188 7.16249C4.47651 7.48779 4.70369 7.77609 4.98497 8.00787C5.79082 8.74154 6.59543 9.47489 7.39881 10.2079C7.64076 10.4292 7.6664 10.4354 7.89658 10.1921C8.72619 9.31682 9.55452 8.44088 10.3815 7.56432C10.6951 7.22463 10.8685 6.78277 10.868 6.32471C10.8848 6.07584 10.8366 5.82688 10.7279 5.60137ZM6.54925 6.62283H6.13955V7.01896C6.13955 7.0676 6.11983 7.11423 6.08474 7.14862C6.04965 7.18301 6.00206 7.20233 5.95244 7.20233C5.90282 7.20233 5.85522 7.18301 5.82014 7.14862C5.78505 7.11423 5.76533 7.0676 5.76533 7.01896V6.62283H5.36112C5.31149 6.62283 5.2639 6.60351 5.22881 6.56913C5.19372 6.53474 5.17401 6.4881 5.17401 6.43947C5.17401 6.39084 5.19372 6.3442 5.22881 6.30981C5.2639 6.27542 5.31149 6.2561 5.36112 6.2561H5.76533V5.86171C5.76533 5.81308 5.78505 5.76644 5.82014 5.73205C5.85522 5.69767 5.90282 5.67835 5.95244 5.67835C6.00206 5.67835 6.04965 5.69767 6.08474 5.73205C6.11983 5.76644 6.13955 5.81308 6.13955 5.86171V6.25784H6.54925C6.59887 6.25784 6.64646 6.27716 6.68155 6.31155C6.71664 6.34594 6.73635 6.39258 6.73635 6.44121C6.73635 6.48984 6.71664 6.53648 6.68155 6.57087C6.64646 6.60525 6.59887 6.62457 6.54925 6.62457V6.62283Z" fill="#718EFA"/>
</g>
<defs>
<clipPath id="clip0_2312_10565">
<rect width="15" height="21" fill="white"/>
</clipPath>
</defs>
</svg>
