<svg width="139" height="135" viewBox="0 0 139 135" fill="none" xmlns="http://www.w3.org/2000/svg">
<g clip-path="url(#clip0_409:18128)">
<path d="M139 77.8495C138.463 80.7899 138.206 83.8102 137.346 86.6525C131.253 106.832 118.714 120.818 98.1749 126.695C89.6333 129.141 80.983 128.552 72.4234 126.331C70.8601 125.928 70.0948 124.75 70.4539 123.424C70.8384 122.017 72.0208 121.407 73.6892 121.835C78.3731 123.087 83.2138 123.649 88.0592 123.504C98.0842 123.115 106.941 119.586 114.659 113.243C124.663 105.029 131.325 94.685 133.687 81.8112C135.456 72.1541 133.904 63.0239 128.757 54.5917C127.241 52.1092 125.094 52.0474 123.589 54.4972C119.008 61.9481 112.218 66.6476 104.243 69.5808C97.7142 71.9796 90.9717 73.7424 84.3779 75.9522C80.3193 77.3116 76.2353 78.7181 72.4088 80.5827C64.2844 84.5226 60.1896 91.203 59.9321 100.242C59.847 104.923 60.3911 109.595 61.5497 114.13C61.7564 114.009 61.9507 113.868 62.13 113.708C67.9078 107.195 75.1508 102.83 83.0105 99.3736C84.8711 98.5522 86.7571 97.7816 88.5743 96.8693C89.1993 96.567 89.6866 96.0383 89.938 95.3901C90.7142 92.3733 91.4142 89.3275 91.9836 86.2636C92.2955 84.5989 93.1297 83.5522 94.5225 83.6612C95.9152 83.7702 96.8075 84.897 96.6261 86.5907C96.3868 88.8369 95.9987 91.0685 95.6505 93.4964C96.0966 93.282 96.5173 93.1003 96.9199 92.8822C101.785 90.2497 106.264 86.9572 110.231 83.0978C110.525 82.8143 110.804 82.5163 111.116 82.251C112.179 81.3569 113.528 81.4005 114.402 82.3418C114.612 82.5527 114.777 82.8037 114.887 83.08C114.998 83.3562 115.052 83.652 115.046 83.9495C115.039 84.2471 114.974 84.5404 114.852 84.8118C114.73 85.0833 114.555 85.3273 114.337 85.5294C112.792 87.0596 111.196 88.5388 109.538 89.9491C103.963 94.674 97.5691 98.047 90.9209 100.976L89.2997 101.703C91.6753 102.55 93.8297 103.259 95.9298 104.099C96.5971 104.364 97.4277 104.869 97.6417 105.462C97.8635 106.256 97.782 107.105 97.4132 107.842C96.9272 108.784 95.8717 108.933 94.8961 108.616C93.4743 108.173 92.0779 107.639 90.6743 107.141C88.5452 106.385 86.438 105.556 84.2799 104.902C83.5329 104.682 82.7339 104.718 82.0094 105.004C69.6378 110.615 61.0963 119.971 55.6849 132.347C55.4999 132.765 55.3403 133.19 55.13 133.59C54.4735 134.84 53.2367 135.309 52.0579 134.767C51.7854 134.648 51.5392 134.476 51.3337 134.261C51.1281 134.046 50.9674 133.792 50.8607 133.514C50.754 133.236 50.7036 132.939 50.7124 132.642C50.7212 132.344 50.789 132.051 50.9118 131.78C51.7206 129.857 52.5802 127.952 53.5704 126.121C54.6875 124.049 55.917 122.032 57.1973 120.062C57.4642 119.709 57.6433 119.297 57.7196 118.861C57.7959 118.425 57.7673 117.977 57.6362 117.554C56.0077 111.477 54.9704 105.323 55.3621 98.9883C55.9895 88.9495 60.8025 81.604 69.5073 76.7882C75.4192 73.517 81.9151 71.8815 88.295 69.8824C94.1525 68.0651 100.025 66.1933 105.686 63.8563C111.703 61.3738 116.495 57.2086 119.991 51.5713C122.954 46.7954 129.374 46.8827 132.399 51.6367C135.944 57.1534 138.124 63.4386 138.757 69.9697C138.815 70.3239 138.897 70.6737 139.004 71.0164L139 77.8495Z" fill="#7CB4FB"/>
<path d="M26.9014 48.2057C29.4402 42.9573 31.8993 37.9052 34.3548 32.8531C34.5218 32.4761 34.7157 32.1117 34.9351 31.7627C35.2279 31.2703 35.6973 30.9085 36.2473 30.7511C36.7973 30.5937 37.3866 30.6527 37.8947 30.9159C38.4152 31.1673 38.8211 31.6073 39.0305 32.147C39.2399 32.6867 39.2371 33.2859 39.0227 33.8236C38.8137 34.3239 38.5714 34.8097 38.2973 35.2774C33.3051 45.0455 28.8871 55.0978 25.0661 65.3828C24.8956 65.8408 24.7542 66.306 24.5329 66.9602C26.6547 65.9353 28.5589 64.9503 30.5174 64.0925C32.2511 63.3293 34.0356 62.6678 35.8237 62.039C37.3325 61.5047 38.631 62.0862 39.0408 63.3692C39.4507 64.6523 38.8413 65.8808 37.3035 66.4114C32.193 68.1186 27.3545 70.5546 22.9371 73.6443C22.3245 74.0743 21.8595 74.6837 21.606 75.3889C19.9267 80.8408 18.3417 86.3327 16.7204 91.81C16.6334 92.1008 16.5935 92.4061 16.4883 92.9186C17.3624 92.7005 18.0914 92.5551 18.806 92.3407C37.7387 86.9469 48.8445 74.2767 52.6202 55.1042C55.4347 40.8056 53.2295 26.9287 48.1699 13.4189C47.5025 11.638 46.7554 9.88245 45.9756 8.14874C45.1704 6.35325 43.6434 5.82624 41.9859 6.78214C28.5117 14.4657 17.4966 24.6644 10.5147 38.7485C3.46387 52.9452 2.64055 67.5091 8.45458 82.3637C8.72291 82.932 8.86402 83.5523 8.86806 84.181C8.8428 84.6894 8.63637 85.1718 8.28629 85.5406C7.93621 85.9095 7.4657 86.1402 6.96027 86.1909C6.41858 86.303 5.85463 86.2042 5.38304 85.9146C4.91144 85.6249 4.5676 85.1662 4.42139 84.6317C3.26076 80.9971 1.88251 77.4279 1.15712 73.7279C-2.03462 57.7356 1.69391 43.1027 10.424 29.6256C17.9028 18.0785 27.9967 9.33362 39.9113 2.64596C43.8212 0.465196 48.3331 2.00991 50.23 6.19333C54.5497 15.7269 57.3534 25.6784 58.2275 36.1425C59.0109 45.5633 58.3291 54.8461 55.228 63.8272C48.7647 82.5345 35.5082 93.4892 16.4666 97.709C15.4474 97.9343 15.0412 98.3378 14.8598 99.3264C14.5189 101.198 14.0256 103.041 13.6158 104.902C13.1878 106.828 12.165 107.748 10.7577 107.446C9.23801 107.123 8.66132 105.869 9.0893 103.884C12.4489 88.1357 17.146 72.7039 23.1293 57.7574C23.8184 56.0492 23.492 54.4572 23.2236 52.8289C22.6626 49.5556 21.4912 46.4175 19.7707 43.5788C19.3837 42.976 19.1692 42.2782 19.1505 41.5616C19.194 40.5367 19.8759 39.8279 20.9277 39.5989C21.3933 39.4659 21.8905 39.499 22.3344 39.6926C22.7783 39.8861 23.1413 40.2282 23.3614 40.6603C24.4241 42.6557 25.3853 44.7056 26.3718 46.7409C26.564 47.1771 26.691 47.6423 26.9014 48.2057Z" fill="#7CB4FB"/>
<path d="M77.5194 48.7909C79.7645 47.2825 81.9806 45.7414 84.2511 44.284C86.1843 43.0409 87.5915 43.1681 88.3713 44.5202C89.1511 45.8723 88.5998 47.0644 86.6993 48.2057C82.348 50.8252 78.3778 54.0332 74.9008 57.7393C74.6313 58.0453 74.3324 58.3241 74.0085 58.5716C73.5734 58.8796 73.0447 59.0259 72.5135 58.9852C71.9823 58.9444 71.4819 58.7193 71.0986 58.3485C70.7153 57.9778 70.4731 57.4846 70.4137 56.9541C70.3543 56.4235 70.4815 55.8888 70.7733 55.4422C70.9897 55.0947 71.2575 54.7822 71.5676 54.5154C72.6919 53.5522 72.9785 52.5454 72.8298 50.9207C72.3728 45.9777 74.4184 41.7434 77.7117 38.2287C82.9272 32.6641 89.3724 30.6578 96.8403 32.3334C101.069 33.282 103.427 36.9057 102.676 41.2091C101.389 48.5582 97.2356 53.6067 90.4133 56.4744C88.7558 57.1759 87.4066 56.7216 86.8734 55.384C86.3402 54.0465 86.9749 52.8943 88.6869 52.1638C93.9786 49.9285 97.1595 45.985 98.1424 40.2932C98.4217 38.6903 97.6273 37.4291 96.0895 36.9275C88.1682 34.3542 78.5386 40.4931 77.5194 48.7909Z" fill="#7CB4FB"/>
<path d="M77.7624 11.34C82.1148 11.8379 86.4671 12.4304 90.8195 12.7938C93.3757 13.0336 95.9468 13.0701 98.5087 12.9029C99.6222 12.8193 100.83 12.1178 101.733 11.3727C103.405 9.99154 103.518 8.07247 102.317 6.25153C101.207 4.56871 99.7527 4.22343 98.0009 5.23021C97.7021 5.434 97.3921 5.62087 97.0724 5.78994C96.5719 6.01657 96.0071 6.05651 95.4798 5.90256C94.9525 5.74861 94.4975 5.4109 94.1968 4.95035C93.8961 4.4898 93.7695 3.93673 93.8399 3.3909C93.9103 2.84508 94.173 2.34242 94.5807 1.97361C96.6372 -0.00724458 100.217 -0.625128 102.799 0.683328C105.987 2.30073 107.696 5.04485 107.721 8.55951C107.743 12.1941 105.875 14.9782 102.643 16.4539C100.717 17.3392 98.6187 17.786 96.4993 17.7623C92.3573 17.6569 88.219 17.1117 84.0915 16.6719C79.1225 16.1304 74.1862 15.7996 69.3116 17.3625C69.0139 17.477 68.6955 17.5269 68.3772 17.5089C68.0589 17.4908 67.748 17.4053 67.4652 17.2579C67.1823 17.1105 66.9339 16.9046 66.7364 16.6539C66.5389 16.4031 66.3967 16.1132 66.3193 15.8033C65.982 14.6038 66.6385 13.4371 67.9914 12.9574C71.1468 11.8452 74.4147 11.4999 77.7624 11.34Z" fill="#7CB4FB"/>
<path d="M117.731 30.8614C115.715 30.647 113.687 30.4725 111.678 30.1963C110.18 29.9891 109.357 28.8878 109.56 27.5721C109.763 26.2564 110.869 25.5004 112.345 25.6094C114.775 25.7912 117.209 26.0347 119.639 26.0201C120.809 25.9885 121.954 25.6809 122.983 25.1224C123.443 24.8716 123.844 24.5254 124.159 24.1069C124.474 23.6885 124.697 23.2074 124.812 22.6958C124.927 22.1842 124.932 21.6539 124.826 21.1404C124.72 20.6268 124.506 20.1418 124.198 19.7177C123.804 19.0731 123.188 18.5955 122.466 18.3752C121.744 18.1549 120.967 18.2071 120.281 18.522C119.824 18.7146 119.418 19.0163 118.975 19.2489C117.793 19.8486 116.538 19.5433 115.874 18.5002C115.545 18.0011 115.426 17.3914 115.544 16.8047C115.663 16.2181 116.008 15.7024 116.505 15.3708C119.026 13.5971 121.765 12.9247 124.681 14.2804C127.597 15.6361 129.247 18.1004 129.475 21.3279C129.838 26.3364 126.153 30.1527 120.589 30.6688C119.65 30.756 118.693 30.6688 117.746 30.6688L117.731 30.8614Z" fill="#7CB4FB"/>
</g>
<defs>
<clipPath id="clip0_409:18128">
<rect width="139" height="135" fill="white"/>
</clipPath>
</defs>
</svg>
