<svg width="29" height="29" viewBox="0 0 29 29" fill="none" xmlns="http://www.w3.org/2000/svg">
<circle cx="14.5" cy="14.5" r="13.5" fill="white" stroke="#987BEC" stroke-width="2"/>
<path d="M20.2 13.8375C20.0125 14.0437 19.8 14.225 19.575 14.3812C18.5313 15.0875 17.4813 15.8 16.4625 16.5375C15.9375 16.925 15.2875 17.4 14.6063 17.4H14.6H14.5938C13.9125 17.4 13.2625 16.925 12.7375 16.5375C11.7188 15.7937 10.6688 15.0875 9.63125 14.3812C9.4 14.225 9.1875 14.0437 9 13.8375V18.8C9 19.35 9.45 19.8 10 19.8H19.2C19.75 19.8 20.2 19.35 20.2 18.8V13.8375ZM20.2 12C20.2 11.45 19.7438 11 19.2 11H10C9.33125 11 9 11.525 9 12.1375C9 12.7062 9.63125 13.4125 10.075 13.7125C11.0438 14.3875 12.025 15.0625 12.9938 15.7437C13.4 16.025 14.0875 16.6 14.5938 16.6H14.6H14.6063C15.1125 16.6 15.8 16.025 16.2063 15.7437C17.175 15.0625 18.1563 14.3875 19.1313 13.7125C19.6813 13.3312 20.2 12.7 20.2 12Z" fill="#987BEC"/>
</svg>
