<svg width="20" height="15" viewBox="0 0 20 15" fill="none" xmlns="http://www.w3.org/2000/svg">
<path d="M0.0318756 11.7402C0.0318756 11.7196 0.0362225 11.6983 0.0362225 11.6771V11.2959C0.0360317 11.2258 0.0238571 11.1561 0 11.0884H0.0456409V10.8161C0.0456409 7.58323 0.0456409 4.34997 0.0456409 1.11636C0.0456409 0.38065 0.552757 0 1.5315 0H13.6299C13.7434 0.0311829 13.8633 0.047216 13.9841 0.0473768C14.6035 0.0473768 15.2215 0.0435651 15.838 0C16.7798 0 17.6912 0 18.6011 0C19.4509 0 19.9993 0.406245 20 1.03848C20 5.34525 20 9.65202 20 13.9588C20 14.5932 19.4538 15 18.604 15C12.8837 15 7.16316 15 1.44239 15C0.581011 15 0.0463638 14.5932 0.0449162 13.9397C0.0434666 13.2863 0.0449162 12.6219 0.0449162 11.963V11.7392L0.0318756 11.7402ZM19.1343 12.3485V1.11853C19.1343 0.745508 19.0082 0.650754 18.5091 0.650754H1.53946C1.03959 0.650754 0.913536 0.744963 0.913536 1.11853V11.8677L0.962076 11.8748C1.01351 11.8072 1.06857 11.7402 1.11711 11.6716C1.87971 10.5934 2.64208 9.51498 3.40421 8.43638C3.69399 8.02414 4.19749 7.84716 4.72779 7.9637C5.07045 8.03885 5.29069 8.21692 5.45224 8.44945C6.14772 9.42966 6.84681 10.4099 7.54953 11.3901C7.5959 11.4543 7.64734 11.5164 7.71254 11.6008C8.00811 11.1826 8.28703 10.7878 8.56667 10.3935C9.62147 8.90216 10.6765 7.41078 11.7318 5.91941C12.2621 5.1739 13.5183 5.06825 14.1739 5.71029C14.2633 5.80414 14.3425 5.90321 14.4108 6.00654C15.9278 8.12779 17.4439 10.2494 18.959 12.3714C18.9999 12.4357 19.0587 12.4927 19.1314 12.5386L19.1343 12.3485ZM7.0598 14.3514C10.8806 14.3514 14.7011 14.3514 18.5214 14.3514C18.6379 14.3559 18.7546 14.3452 18.8662 14.3198C19.1125 14.2507 19.1821 14.0808 19.0466 13.8896C18.2111 12.7105 17.3741 11.5322 16.5357 10.3549C15.5601 8.98657 14.5825 7.61863 13.6031 6.25104C13.4799 6.07896 13.3314 5.94827 13.0481 5.94663C12.7649 5.945 12.6091 6.07134 12.4867 6.24451C10.6176 8.89182 8.7473 11.5386 6.87579 14.1848C6.84319 14.2311 6.81494 14.2795 6.76712 14.3525L7.0598 14.3514ZM0.962797 14.1439C0.980909 14.3073 1.21274 14.3531 1.4308 14.3525C2.12627 14.3498 2.82175 14.3525 3.51722 14.3525C4.2127 14.3525 4.89006 14.3492 5.57685 14.3525C5.63778 14.3575 5.69918 14.3472 5.75156 14.3233C5.80394 14.2993 5.84438 14.2631 5.86663 14.2202C6.28391 13.6212 6.71496 13.0221 7.12863 12.4231C7.14971 12.3855 7.16027 12.345 7.15965 12.3041C7.15902 12.2633 7.14723 12.223 7.125 12.1857C6.31796 11.041 5.50368 9.89944 4.68215 8.76094C4.65419 8.72172 4.61566 8.68732 4.569 8.65994C4.52234 8.63255 4.4686 8.6128 4.4112 8.60193C4.33875 8.59648 4.2156 8.68633 4.16633 8.75495C3.10284 10.2498 2.02485 11.7397 1.00844 13.2525C0.846161 13.4932 0.928749 13.8444 0.962797 14.1418V14.1439Z" fill="#987BEC"/>
<path d="M6.00046 5.11623C6.36261 5.11845 6.7173 5.01439 7.01972 4.81721C7.32213 4.62003 7.55871 4.33857 7.69955 4.00838C7.84039 3.6782 7.87917 3.31412 7.811 2.96213C7.74284 2.61015 7.57077 2.28605 7.31655 2.0308C7.06233 1.77555 6.73737 1.60059 6.38271 1.52802C6.02805 1.45546 5.65962 1.48856 5.32396 1.62312C4.98829 1.75769 4.70047 1.98769 4.49685 2.28407C4.29322 2.58045 4.18294 2.9299 4.17992 3.28828C4.17763 3.52675 4.22296 3.76332 4.31331 3.9844C4.40366 4.20548 4.53725 4.40672 4.70641 4.57657C4.87557 4.74642 5.07697 4.88153 5.29904 4.97414C5.52111 5.06675 5.75948 5.11504 6.00046 5.11623ZM6.01078 4.47107C5.77696 4.47085 5.54848 4.40189 5.35433 4.27294C5.16018 4.14399 5.00912 3.96087 4.92032 3.74682C4.83152 3.53277 4.80899 3.29743 4.85557 3.07068C4.90216 2.84393 5.01577 2.63599 5.18198 2.47325C5.34819 2.3105 5.55952 2.20029 5.78913 2.1566C6.01875 2.11292 6.2563 2.13772 6.47165 2.22787C6.68699 2.31802 6.87042 2.46945 6.99865 2.66293C7.12688 2.85642 7.19413 3.08325 7.19187 3.31463C7.19123 3.46736 7.16016 3.61846 7.10042 3.75929C7.04068 3.90011 6.95346 4.0279 6.84375 4.13532C6.73404 4.24274 6.604 4.32769 6.46106 4.3853C6.31813 4.44292 6.16511 4.47206 6.01078 4.47107Z" fill="#987BEC"/>
</svg>
