<svg width="14" height="15" viewBox="0 0 14 15" fill="none" xmlns="http://www.w3.org/2000/svg">
<path fill-rule="evenodd" clip-rule="evenodd" d="M13 11.9658C13 11.2441 12.5521 10.5996 11.8733 10.3544C10.876 9.99398 9.23114 9.57141 7 9.57141C4.76886 9.57141 3.124 9.99398 2.12671 10.3544C1.44786 10.5996 1 11.2441 1 11.9658V13.8571H13V11.9658Z" stroke="#8C8C8C" stroke-linecap="square"/>
<path fill-rule="evenodd" clip-rule="evenodd" d="M7 7.85714V7.85714C5.34314 7.85714 4 6.514 4 4.85714V4C4 2.34314 5.34314 1 7 1V1C8.65686 1 10 2.34314 10 4V4.85714C10 6.514 8.65686 7.85714 7 7.85714Z" stroke="#8C8C8C" stroke-linecap="square"/>
</svg>
