<svg id="Sucesso" xmlns="http://www.w3.org/2000/svg" width="79.848" height="79.848" viewBox="0 0 79.848 79.848">
  <path id="Icon_awesome-check-circle" data-name="Icon awesome-check-circle" d="M80.411,40.487A39.924,39.924,0,1,1,40.487.563,39.924,39.924,0,0,1,80.411,40.487ZM35.869,61.626,65.49,32.005a2.576,2.576,0,0,0,0-3.643L61.847,24.72a2.576,2.576,0,0,0-3.643,0L34.047,48.877,22.769,37.6a2.576,2.576,0,0,0-3.643,0l-3.643,3.643a2.576,2.576,0,0,0,0,3.643L32.226,61.626A2.576,2.576,0,0,0,35.869,61.626Z" transform="translate(-0.563 -0.563)" fill="#4fb347"/>
</svg>
