<svg width="40" height="41" viewBox="0 0 40 41" fill="none" xmlns="http://www.w3.org/2000/svg">
<path fill-rule="evenodd" clip-rule="evenodd" d="M26.0543 0.335938C30.07 0.335938 32.0773 0.335938 34.239 1.02487C36.599 1.89091 38.4577 3.76481 39.3167 6.14416C40 8.32321 40 10.3477 40 14.3959V26.6038C40 30.6524 40 32.6762 39.3167 34.8556C38.4577 37.2349 36.599 39.1088 34.239 39.9745C32.0773 40.6638 30.07 40.6638 26.0543 40.6638H13.9457C9.93 40.6638 7.92233 40.6638 5.761 39.9745C3.401 39.1088 1.54233 37.2349 0.683333 34.8556C0 32.6762 0 30.6524 0 26.6038V14.3959C0 10.3477 0 8.32321 0.683333 6.14416C1.54233 3.76481 3.401 1.89091 5.761 1.02487C7.92233 0.335938 9.93 0.335938 13.9457 0.335938H26.0543Z" fill="#25D366"/>
<path d="M28.8581 11.5178C26.5075 9.14536 23.3822 7.83849 20.0522 7.83691C13.1916 7.83691 7.60656 13.4664 7.60437 20.3861C7.60312 22.5985 8.17656 24.7576 9.26563 26.6599L7.5 33.1634L14.0984 31.4186C15.9169 32.4177 17.9638 32.9448 20.0472 32.9457H20.0525C26.9131 32.9457 32.4972 27.3153 32.5 20.3959C32.5016 17.043 31.2075 13.8899 28.8581 11.5178ZM20.0525 30.826H20.0484C18.1913 30.8254 16.3706 30.3225 14.7819 29.3723L14.4041 29.1461L10.4884 30.1817L11.5331 26.3329L11.2872 25.9372C10.2513 24.2768 9.70406 22.3578 9.70531 20.3861C9.70719 14.6353 14.3488 9.95633 20.0556 9.95633C22.8194 9.95696 25.4166 11.0436 27.3703 13.0156C29.3238 14.9872 30.3988 17.6076 30.3981 20.3949C30.3963 26.1467 25.7547 30.826 20.0525 30.826ZM25.7275 23.0141C25.4163 22.8568 23.8872 22.0991 23.6019 21.9936C23.3166 21.889 23.11 21.837 22.9025 22.1508C22.695 22.4646 22.0991 23.1713 21.9172 23.3805C21.7359 23.5897 21.5547 23.6161 21.2434 23.4589C20.9322 23.3017 19.9303 22.9709 18.7431 21.9022C17.8181 21.0714 17.1938 20.0437 17.0125 19.7299C16.8313 19.4161 16.9931 19.2469 17.1491 19.0903C17.2891 18.9498 17.4603 18.7242 17.6156 18.5408C17.7709 18.3574 17.8228 18.2267 17.9266 18.0178C18.0303 17.8086 17.9788 17.6256 17.9006 17.4687C17.8225 17.3114 17.2006 15.768 16.9419 15.14C16.6891 14.5285 16.4328 14.6114 16.2422 14.6019C16.0603 14.5931 15.8531 14.5906 15.6459 14.5906C15.4388 14.5906 15.1016 14.669 14.8166 14.9831C14.5319 15.2969 13.7281 16.0553 13.7281 17.5994C13.7281 19.1426 14.8425 20.6341 14.9981 20.843C15.1538 21.0518 17.1913 24.2198 20.3113 25.578C21.0531 25.9006 21.6328 26.0938 22.0844 26.2387C22.8294 26.4778 23.5075 26.4435 24.0438 26.3628C24.6413 26.273 25.8838 25.6045 26.1434 24.872C26.4025 24.1398 26.4025 23.5122 26.3241 23.3811C26.2456 23.2497 26.0381 23.1713 25.7275 23.0141Z" fill="white"/>
</svg>
